<svg width="190" height="190" viewBox="0 0 190 190" fill="none" xmlns="http://www.w3.org/2000/svg">
<path fill-rule="evenodd" clip-rule="evenodd" d="M95 0L185.35 65.6434L150.84 171.857H39.1604L4.64963 65.6434L95 0Z" fill="#FF6565"/>
<path d="M41.3752 134V124.816H42.5372V133.006H46.5552V134H41.3752ZM50.5538 134.168C50.1338 134.168 49.7324 134.089 49.3498 133.93C48.9764 133.771 48.6451 133.543 48.3558 133.244C48.0664 132.936 47.8331 132.563 47.6558 132.124C47.4878 131.676 47.4038 131.172 47.4038 130.612C47.4038 130.043 47.4878 129.539 47.6558 129.1C47.8331 128.652 48.0664 128.274 48.3558 127.966C48.6451 127.658 48.9764 127.425 49.3498 127.266C49.7324 127.107 50.1338 127.028 50.5538 127.028C50.9738 127.028 51.3704 127.107 51.7438 127.266C52.1264 127.425 52.4624 127.658 52.7518 127.966C53.0411 128.274 53.2698 128.652 53.4378 129.1C53.6151 129.539 53.7038 130.043 53.7038 130.612C53.7038 131.172 53.6151 131.676 53.4378 132.124C53.2698 132.563 53.0411 132.936 52.7518 133.244C52.4624 133.543 52.1264 133.771 51.7438 133.93C51.3704 134.089 50.9738 134.168 50.5538 134.168ZM50.5538 133.216C50.8431 133.216 51.1091 133.155 51.3518 133.034C51.5944 132.903 51.7998 132.726 51.9678 132.502C52.1451 132.269 52.2804 131.993 52.3738 131.676C52.4671 131.359 52.5138 131.004 52.5138 130.612C52.5138 130.22 52.4671 129.865 52.3738 129.548C52.2804 129.221 52.1451 128.941 51.9678 128.708C51.7998 128.475 51.5944 128.297 51.3518 128.176C51.1091 128.045 50.8431 127.98 50.5538 127.98C50.2644 127.98 49.9984 128.045 49.7558 128.176C49.5131 128.297 49.3031 128.475 49.1258 128.708C48.9578 128.941 48.8271 129.221 48.7338 129.548C48.6404 129.865 48.5938 130.22 48.5938 130.612C48.5938 131.004 48.6404 131.359 48.7338 131.676C48.8271 131.993 48.9578 132.269 49.1258 132.502C49.3031 132.726 49.5131 132.903 49.7558 133.034C49.9984 133.155 50.2644 133.216 50.5538 133.216ZM55.4957 134V127.196H56.4477L56.5457 128.428H56.5877C56.821 127.999 57.101 127.658 57.4277 127.406C57.7637 127.154 58.1277 127.028 58.5197 127.028C58.7903 127.028 59.033 127.075 59.2477 127.168L59.0237 128.176C58.9117 128.139 58.809 128.111 58.7157 128.092C58.6223 128.073 58.5057 128.064 58.3657 128.064C58.0763 128.064 57.773 128.181 57.4557 128.414C57.1477 128.647 56.877 129.053 56.6437 129.632V134H55.4957ZM62.9705 134.168C62.5131 134.168 62.0838 134.089 61.6825 133.93C61.2905 133.762 60.9451 133.529 60.6465 133.23C60.3571 132.922 60.1285 132.549 59.9605 132.11C59.7925 131.671 59.7085 131.172 59.7085 130.612C59.7085 130.052 59.7925 129.553 59.9605 129.114C60.1378 128.666 60.3665 128.288 60.6465 127.98C60.9358 127.672 61.2625 127.439 61.6265 127.28C61.9905 127.112 62.3685 127.028 62.7605 127.028C63.1898 127.028 63.5725 127.103 63.9085 127.252C64.2538 127.401 64.5385 127.616 64.7625 127.896C64.9958 128.176 65.1731 128.512 65.2945 128.904C65.4158 129.296 65.4765 129.735 65.4765 130.22C65.4765 130.341 65.4718 130.463 65.4625 130.584C65.4625 130.696 65.4531 130.794 65.4345 130.878H60.8425C60.8891 131.606 61.1131 132.185 61.5145 132.614C61.9251 133.034 62.4571 133.244 63.1105 133.244C63.4371 133.244 63.7358 133.197 64.0065 133.104C64.2865 133.001 64.5525 132.871 64.8045 132.712L65.2105 133.468C64.9118 133.655 64.5805 133.818 64.2165 133.958C63.8525 134.098 63.4371 134.168 62.9705 134.168ZM60.8285 130.052H64.4685C64.4685 129.361 64.3191 128.839 64.0205 128.484C63.7311 128.12 63.3205 127.938 62.7885 127.938C62.5458 127.938 62.3125 127.985 62.0885 128.078C61.8738 128.171 61.6778 128.311 61.5005 128.498C61.3231 128.675 61.1738 128.895 61.0525 129.156C60.9405 129.417 60.8658 129.716 60.8285 130.052ZM67.1578 134V127.196H68.1098L68.2078 128.176H68.2498C68.5484 127.849 68.8704 127.579 69.2158 127.364C69.5704 127.14 69.9531 127.028 70.3638 127.028C70.8864 127.028 71.2924 127.145 71.5818 127.378C71.8804 127.602 72.0998 127.919 72.2398 128.33C72.5944 127.938 72.9491 127.625 73.3038 127.392C73.6678 127.149 74.0598 127.028 74.4798 127.028C75.1798 127.028 75.6978 127.252 76.0338 127.7C76.3791 128.148 76.5518 128.811 76.5518 129.688V134H75.4038V129.842C75.4038 129.198 75.3011 128.736 75.0958 128.456C74.8904 128.167 74.5731 128.022 74.1438 128.022C73.6304 128.022 73.0611 128.372 72.4358 129.072V134H71.2878V129.842C71.2878 129.198 71.1851 128.736 70.9798 128.456C70.7744 128.167 70.4524 128.022 70.0138 128.022C69.5004 128.022 68.9311 128.372 68.3058 129.072V134H67.1578ZM81.5679 134V127.196H82.7159V134H81.5679ZM82.1559 125.796C81.9319 125.796 81.7406 125.726 81.5819 125.586C81.4326 125.446 81.3579 125.269 81.3579 125.054C81.3579 124.83 81.4326 124.653 81.5819 124.522C81.7406 124.382 81.9319 124.312 82.1559 124.312C82.3799 124.312 82.5666 124.382 82.7159 124.522C82.8746 124.653 82.9539 124.83 82.9539 125.054C82.9539 125.269 82.8746 125.446 82.7159 125.586C82.5666 125.726 82.3799 125.796 82.1559 125.796ZM85.0132 136.87V127.196H85.9652L86.0632 127.98H86.1052C86.4132 127.719 86.7492 127.495 87.1132 127.308C87.4866 127.121 87.8739 127.028 88.2752 127.028C88.7139 127.028 89.1012 127.112 89.4372 127.28C89.7732 127.439 90.0532 127.672 90.2772 127.98C90.5012 128.279 90.6692 128.643 90.7812 129.072C90.9026 129.492 90.9632 129.968 90.9632 130.5C90.9632 131.079 90.8839 131.597 90.7252 132.054C90.5666 132.502 90.3519 132.885 90.0812 133.202C89.8106 133.519 89.4979 133.762 89.1432 133.93C88.7886 134.089 88.4152 134.168 88.0232 134.168C87.7059 134.168 87.3886 134.098 87.0712 133.958C86.7632 133.818 86.4506 133.627 86.1332 133.384L86.1612 134.574V136.87H85.0132ZM87.8272 133.202C88.1072 133.202 88.3639 133.141 88.5972 133.02C88.8399 132.889 89.0452 132.712 89.2132 132.488C89.3906 132.255 89.5259 131.97 89.6192 131.634C89.7219 131.298 89.7732 130.92 89.7732 130.5C89.7732 130.127 89.7406 129.786 89.6752 129.478C89.6099 129.17 89.5026 128.909 89.3532 128.694C89.2132 128.47 89.0266 128.297 88.7932 128.176C88.5692 128.055 88.2986 127.994 87.9812 127.994C87.6919 127.994 87.3979 128.073 87.0992 128.232C86.8099 128.391 86.4972 128.619 86.1612 128.918V132.488C86.4692 132.749 86.7679 132.936 87.0572 133.048C87.3466 133.151 87.6032 133.202 87.8272 133.202ZM94.5569 134.168C94.0715 134.168 93.6095 134.079 93.1709 133.902C92.7322 133.725 92.3495 133.501 92.0229 133.23L92.5969 132.46C92.8955 132.703 93.1989 132.899 93.5069 133.048C93.8242 133.197 94.1882 133.272 94.5989 133.272C95.0469 133.272 95.3829 133.169 95.6069 132.964C95.8309 132.759 95.9429 132.507 95.9429 132.208C95.9429 132.031 95.8962 131.877 95.8029 131.746C95.7095 131.615 95.5882 131.503 95.4389 131.41C95.2989 131.307 95.1355 131.219 94.9489 131.144C94.7622 131.069 94.5755 130.995 94.3889 130.92C94.1462 130.836 93.9035 130.743 93.6609 130.64C93.4182 130.528 93.1989 130.397 93.0029 130.248C92.8162 130.089 92.6622 129.907 92.5409 129.702C92.4195 129.497 92.3589 129.249 92.3589 128.96C92.3589 128.689 92.4102 128.437 92.5129 128.204C92.6249 127.961 92.7789 127.756 92.9749 127.588C93.1802 127.411 93.4275 127.275 93.7169 127.182C94.0062 127.079 94.3329 127.028 94.6969 127.028C95.1262 127.028 95.5182 127.103 95.8729 127.252C96.2369 127.401 96.5495 127.583 96.8109 127.798L96.2649 128.526C96.0315 128.349 95.7889 128.204 95.5369 128.092C95.2849 127.98 95.0095 127.924 94.7109 127.924C94.2815 127.924 93.9642 128.022 93.7589 128.218C93.5629 128.414 93.4649 128.643 93.4649 128.904C93.4649 129.063 93.5069 129.203 93.5909 129.324C93.6749 129.436 93.7869 129.539 93.9269 129.632C94.0669 129.716 94.2255 129.795 94.4029 129.87C94.5895 129.935 94.7809 130.005 94.9769 130.08C95.2195 130.173 95.4622 130.271 95.7049 130.374C95.9569 130.477 96.1809 130.607 96.3769 130.766C96.5729 130.915 96.7315 131.102 96.8529 131.326C96.9835 131.55 97.0489 131.821 97.0489 132.138C97.0489 132.418 96.9929 132.679 96.8809 132.922C96.7782 133.165 96.6195 133.379 96.4049 133.566C96.1995 133.753 95.9382 133.897 95.6209 134C95.3129 134.112 94.9582 134.168 94.5569 134.168ZM100.632 134.168C99.9041 134.168 99.3721 133.944 99.0361 133.496C98.7094 133.048 98.5461 132.385 98.5461 131.508V127.196H99.7081V131.354C99.7081 131.998 99.8061 132.465 100.002 132.754C100.207 133.034 100.534 133.174 100.982 133.174C101.337 133.174 101.649 133.085 101.92 132.908C102.191 132.721 102.489 132.427 102.816 132.026V127.196H103.964V134H103.012L102.914 132.936H102.872C102.555 133.309 102.219 133.608 101.864 133.832C101.519 134.056 101.108 134.168 100.632 134.168ZM106.259 134V127.196H107.211L107.309 128.176H107.351C107.65 127.849 107.972 127.579 108.317 127.364C108.672 127.14 109.055 127.028 109.465 127.028C109.988 127.028 110.394 127.145 110.683 127.378C110.982 127.602 111.201 127.919 111.341 128.33C111.696 127.938 112.051 127.625 112.405 127.392C112.769 127.149 113.161 127.028 113.581 127.028C114.281 127.028 114.799 127.252 115.135 127.7C115.481 128.148 115.653 128.811 115.653 129.688V134H114.505V129.842C114.505 129.198 114.403 128.736 114.197 128.456C113.992 128.167 113.675 128.022 113.245 128.022C112.732 128.022 112.163 128.372 111.537 129.072V134H110.389V129.842C110.389 129.198 110.287 128.736 110.081 128.456C109.876 128.167 109.554 128.022 109.115 128.022C108.602 128.022 108.033 128.372 107.407 129.072V134H106.259ZM122.993 134.168C122.135 134.168 121.449 133.86 120.935 133.244C120.431 132.628 120.179 131.751 120.179 130.612C120.179 130.061 120.259 129.567 120.417 129.128C120.585 128.68 120.805 128.302 121.075 127.994C121.346 127.686 121.659 127.448 122.013 127.28C122.368 127.112 122.741 127.028 123.133 127.028C123.525 127.028 123.866 127.098 124.155 127.238C124.445 127.378 124.739 127.569 125.037 127.812L124.981 126.65V124.032H126.143V134H125.191L125.093 133.202H125.051C124.781 133.463 124.468 133.692 124.113 133.888C123.768 134.075 123.395 134.168 122.993 134.168ZM123.245 133.202C123.563 133.202 123.861 133.127 124.141 132.978C124.421 132.819 124.701 132.581 124.981 132.264V128.708C124.692 128.447 124.412 128.265 124.141 128.162C123.88 128.05 123.609 127.994 123.329 127.994C123.059 127.994 122.802 128.059 122.559 128.19C122.326 128.311 122.121 128.489 121.943 128.722C121.766 128.946 121.626 129.217 121.523 129.534C121.421 129.851 121.369 130.206 121.369 130.598C121.369 131.419 121.533 132.059 121.859 132.516C122.186 132.973 122.648 133.202 123.245 133.202ZM131.081 134.168C130.661 134.168 130.26 134.089 129.877 133.93C129.504 133.771 129.172 133.543 128.883 133.244C128.594 132.936 128.36 132.563 128.183 132.124C128.015 131.676 127.931 131.172 127.931 130.612C127.931 130.043 128.015 129.539 128.183 129.1C128.36 128.652 128.594 128.274 128.883 127.966C129.172 127.658 129.504 127.425 129.877 127.266C130.26 127.107 130.661 127.028 131.081 127.028C131.501 127.028 131.898 127.107 132.271 127.266C132.654 127.425 132.99 127.658 133.279 127.966C133.568 128.274 133.797 128.652 133.965 129.1C134.142 129.539 134.231 130.043 134.231 130.612C134.231 131.172 134.142 131.676 133.965 132.124C133.797 132.563 133.568 132.936 133.279 133.244C132.99 133.543 132.654 133.771 132.271 133.93C131.898 134.089 131.501 134.168 131.081 134.168ZM131.081 133.216C131.37 133.216 131.636 133.155 131.879 133.034C132.122 132.903 132.327 132.726 132.495 132.502C132.672 132.269 132.808 131.993 132.901 131.676C132.994 131.359 133.041 131.004 133.041 130.612C133.041 130.22 132.994 129.865 132.901 129.548C132.808 129.221 132.672 128.941 132.495 128.708C132.327 128.475 132.122 128.297 131.879 128.176C131.636 128.045 131.37 127.98 131.081 127.98C130.792 127.98 130.526 128.045 130.283 128.176C130.04 128.297 129.83 128.475 129.653 128.708C129.485 128.941 129.354 129.221 129.261 129.548C129.168 129.865 129.121 130.22 129.121 130.612C129.121 131.004 129.168 131.359 129.261 131.676C129.354 131.993 129.485 132.269 129.653 132.502C129.83 132.726 130.04 132.903 130.283 133.034C130.526 133.155 130.792 133.216 131.081 133.216ZM137.241 134.168C136.802 134.168 136.49 134.037 136.303 133.776C136.116 133.515 136.023 133.132 136.023 132.628V124.032H137.171V132.712C137.171 132.899 137.204 133.029 137.269 133.104C137.334 133.179 137.409 133.216 137.493 133.216C137.53 133.216 137.563 133.216 137.591 133.216C137.628 133.216 137.68 133.207 137.745 133.188L137.899 134.056C137.824 134.093 137.736 134.121 137.633 134.14C137.53 134.159 137.4 134.168 137.241 134.168ZM142.237 134.168C141.817 134.168 141.416 134.089 141.033 133.93C140.66 133.771 140.329 133.543 140.039 133.244C139.75 132.936 139.517 132.563 139.339 132.124C139.171 131.676 139.087 131.172 139.087 130.612C139.087 130.043 139.171 129.539 139.339 129.1C139.517 128.652 139.75 128.274 140.039 127.966C140.329 127.658 140.66 127.425 141.033 127.266C141.416 127.107 141.817 127.028 142.237 127.028C142.657 127.028 143.054 127.107 143.427 127.266C143.81 127.425 144.146 127.658 144.435 127.966C144.725 128.274 144.953 128.652 145.121 129.1C145.299 129.539 145.387 130.043 145.387 130.612C145.387 131.172 145.299 131.676 145.121 132.124C144.953 132.563 144.725 132.936 144.435 133.244C144.146 133.543 143.81 133.771 143.427 133.93C143.054 134.089 142.657 134.168 142.237 134.168ZM142.237 133.216C142.527 133.216 142.793 133.155 143.035 133.034C143.278 132.903 143.483 132.726 143.651 132.502C143.829 132.269 143.964 131.993 144.057 131.676C144.151 131.359 144.197 131.004 144.197 130.612C144.197 130.22 144.151 129.865 144.057 129.548C143.964 129.221 143.829 128.941 143.651 128.708C143.483 128.475 143.278 128.297 143.035 128.176C142.793 128.045 142.527 127.98 142.237 127.98C141.948 127.98 141.682 128.045 141.439 128.176C141.197 128.297 140.987 128.475 140.809 128.708C140.641 128.941 140.511 129.221 140.417 129.548C140.324 129.865 140.277 130.22 140.277 130.612C140.277 131.004 140.324 131.359 140.417 131.676C140.511 131.993 140.641 132.269 140.809 132.502C140.987 132.726 141.197 132.903 141.439 133.034C141.682 133.155 141.948 133.216 142.237 133.216ZM147.179 134V127.196H148.131L148.229 128.428H148.271C148.505 127.999 148.785 127.658 149.111 127.406C149.447 127.154 149.811 127.028 150.203 127.028C150.474 127.028 150.717 127.075 150.931 127.168L150.707 128.176C150.595 128.139 150.493 128.111 150.399 128.092C150.306 128.073 150.189 128.064 150.049 128.064C149.76 128.064 149.457 128.181 149.139 128.414C148.831 128.647 148.561 129.053 148.327 129.632V134H147.179Z" fill="white"/>
<path d="M61.1366 94.676V86.212H53.0406V81.428H61.1366V72.964H66.1046V81.428H74.2006V86.212H66.1046V94.676H61.1366ZM77.4813 99V95.136C79.352 93.388 81.054 91.7627 82.5873 90.26C84.1513 88.7267 85.4853 87.3007 86.5893 85.982C87.724 84.6327 88.598 83.3907 89.2113 82.256C89.8553 81.0907 90.1773 79.9867 90.1773 78.944C90.1773 77.5027 89.8093 76.414 89.0733 75.678C88.3373 74.9113 87.3253 74.528 86.0373 74.528C84.964 74.528 84.0133 74.8347 83.1853 75.448C82.3573 76.0307 81.5753 76.7207 80.8393 77.518L77.1593 73.884C78.6006 72.3507 80.0726 71.2007 81.5753 70.434C83.078 69.6367 84.872 69.238 86.9573 69.238C88.3986 69.238 89.702 69.468 90.8673 69.928C92.0633 70.3573 93.0906 70.986 93.9493 71.814C94.808 72.6113 95.4673 73.5773 95.9273 74.712C96.3873 75.8467 96.6173 77.1193 96.6173 78.53C96.6173 79.7567 96.3566 81.014 95.8353 82.302C95.314 83.5593 94.6086 84.832 93.7193 86.12C92.8606 87.3773 91.864 88.65 90.7293 89.938C89.6253 91.1953 88.4753 92.4373 87.2793 93.664C88.0153 93.572 88.828 93.4953 89.7173 93.434C90.6373 93.342 91.45 93.296 92.1553 93.296H98.0433V99H77.4813ZM108.73 87.5C107.657 87.5 106.66 87.2853 105.74 86.856C104.82 86.4267 104.023 85.798 103.348 84.97C102.704 84.142 102.198 83.1453 101.83 81.98C101.462 80.784 101.278 79.4347 101.278 77.932C101.278 76.4293 101.462 75.0953 101.83 73.93C102.198 72.7647 102.704 71.7833 103.348 70.986C104.023 70.158 104.82 69.5293 105.74 69.1C106.66 68.6707 107.657 68.456 108.73 68.456C109.803 68.456 110.8 68.6707 111.72 69.1C112.64 69.5293 113.422 70.158 114.066 70.986C114.741 71.7833 115.262 72.7647 115.63 73.93C116.029 75.0953 116.228 76.4293 116.228 77.932C116.228 79.4347 116.029 80.784 115.63 81.98C115.262 83.1453 114.741 84.142 114.066 84.97C113.422 85.798 112.64 86.4267 111.72 86.856C110.8 87.2853 109.803 87.5 108.73 87.5ZM108.73 83.728C109.497 83.728 110.141 83.2987 110.662 82.44C111.214 81.5813 111.49 80.0787 111.49 77.932C111.49 75.7853 111.214 74.298 110.662 73.47C110.141 72.642 109.497 72.228 108.73 72.228C107.963 72.228 107.304 72.642 106.752 73.47C106.231 74.298 105.97 75.7853 105.97 77.932C105.97 80.0787 106.231 81.5813 106.752 82.44C107.304 83.2987 107.963 83.728 108.73 83.728ZM109.742 99.552L125.934 68.456H129.844L113.652 99.552H109.742ZM130.856 99.552C129.783 99.552 128.786 99.3373 127.866 98.908C126.946 98.4787 126.149 97.85 125.474 97.022C124.83 96.194 124.324 95.1973 123.956 94.032C123.588 92.836 123.404 91.4867 123.404 89.984C123.404 88.4813 123.588 87.1473 123.956 85.982C124.324 84.8167 124.83 83.8353 125.474 83.038C126.149 82.21 126.946 81.5813 127.866 81.152C128.786 80.7227 129.783 80.508 130.856 80.508C131.929 80.508 132.926 80.7227 133.846 81.152C134.766 81.5813 135.548 82.21 136.192 83.038C136.867 83.8353 137.388 84.8167 137.756 85.982C138.155 87.1473 138.354 88.4813 138.354 89.984C138.354 91.4867 138.155 92.836 137.756 94.032C137.388 95.1973 136.867 96.194 136.192 97.022C135.548 97.85 134.766 98.4787 133.846 98.908C132.926 99.3373 131.929 99.552 130.856 99.552ZM130.856 95.78C131.623 95.78 132.267 95.3507 132.788 94.492C133.34 93.6333 133.616 92.1307 133.616 89.984C133.616 87.8373 133.34 86.35 132.788 85.522C132.267 84.694 131.623 84.28 130.856 84.28C130.089 84.28 129.43 84.694 128.878 85.522C128.357 86.35 128.096 87.8373 128.096 89.984C128.096 92.1307 128.357 93.6333 128.878 94.492C129.43 95.3507 130.089 95.78 130.856 95.78Z" fill="white"/>
</svg>
