<svg width="30" height="30" viewBox="0 0 30 30" fill="none" xmlns="http://www.w3.org/2000/svg">
<path fill-rule="evenodd" clip-rule="evenodd" d="M15 0C6.71573 0 0 6.71573 0 15C0 23.2843 6.71573 30 15 30C23.2843 30 30 23.2843 30 15C30 6.71573 23.2843 0 15 0ZM11.702 7.04833C12.5554 7.0095 12.8281 7 15.0007 7H14.9983C17.1716 7 17.4433 7.0095 18.2966 7.04833C19.1483 7.08733 19.73 7.22217 20.24 7.42C20.7666 7.62417 21.2116 7.89751 21.6567 8.34251C22.1017 8.78719 22.375 9.23352 22.58 9.7597C22.7767 10.2684 22.9117 10.8497 22.9517 11.7014C22.99 12.5547 23 12.8274 23 15.0001C23 17.1728 22.99 17.4448 22.9517 18.2981C22.9117 19.1495 22.7767 19.731 22.58 20.2398C22.375 20.7658 22.1017 21.2121 21.6567 21.6568C21.2121 22.1018 20.7665 22.3758 20.2405 22.5802C19.7315 22.778 19.1495 22.9128 18.2978 22.9518C17.4444 22.9907 17.1726 23.0002 14.9998 23.0002C12.8272 23.0002 12.5547 22.9907 11.7014 22.9518C10.8499 22.9128 10.2684 22.778 9.75936 22.5802C9.23352 22.3758 8.78719 22.1018 8.34268 21.6568C7.89784 21.2121 7.62451 20.7658 7.42 20.2396C7.22234 19.731 7.0875 19.1496 7.04833 18.298C7.00967 17.4446 7 17.1728 7 15.0001C7 12.8274 7.01 12.5546 7.04817 11.7012C7.0865 10.8499 7.2215 10.2684 7.41984 9.75953C7.62484 9.23352 7.89818 8.78719 8.34318 8.34251C8.78785 7.89768 9.23419 7.62434 9.76036 7.42C10.269 7.22217 10.8504 7.08733 11.702 7.04833ZM14.2831 8.44168C14.4224 8.44146 14.5723 8.44153 14.7341 8.4416L15.0007 8.44168C17.1368 8.44168 17.3899 8.44935 18.2335 8.48768C19.0135 8.52335 19.4368 8.65368 19.7188 8.76319C20.0921 8.90819 20.3583 9.08152 20.6381 9.36152C20.9181 9.64153 21.0915 9.9082 21.2368 10.2815C21.3463 10.5632 21.4768 10.9865 21.5123 11.7666C21.5507 12.6099 21.559 12.8632 21.559 14.9983C21.559 17.1333 21.5507 17.3866 21.5123 18.2299C21.4767 19.01 21.3463 19.4333 21.2368 19.715C21.0918 20.0883 20.9181 20.3541 20.6381 20.634C20.3581 20.914 20.0923 21.0873 19.7188 21.2323C19.4371 21.3423 19.0135 21.4723 18.2335 21.508C17.3901 21.5463 17.1368 21.5547 15.0007 21.5547C12.8646 21.5547 12.6114 21.5463 11.768 21.508C10.988 21.472 10.5647 21.3416 10.2825 21.2321C9.9092 21.0871 9.64253 20.9138 9.36252 20.6338C9.08252 20.3538 8.90919 20.0878 8.76385 19.7143C8.65435 19.4326 8.52385 19.0093 8.48835 18.2293C8.45002 17.3859 8.44235 17.1326 8.44235 14.9963C8.44235 12.8599 8.45002 12.6079 8.48835 11.7646C8.52402 10.9845 8.65435 10.5612 8.76385 10.2792C8.90885 9.90586 9.08252 9.63919 9.36252 9.35919C9.64253 9.07919 9.9092 8.90585 10.2825 8.76052C10.5645 8.65052 10.988 8.52052 11.768 8.48468C12.5061 8.45135 12.7921 8.44135 14.2831 8.43968V8.44168ZM19.2711 9.77003C18.7411 9.77003 18.3111 10.1995 18.3111 10.7297C18.3111 11.2597 18.7411 11.6897 19.2711 11.6897C19.8011 11.6897 20.2311 11.2597 20.2311 10.7297C20.2311 10.1997 19.8011 9.7697 19.2711 9.7697V9.77003ZM10.8924 15.0001C10.8924 12.7313 12.7318 10.8918 15.0006 10.8917C17.2694 10.8917 19.1085 12.7312 19.1085 15.0001C19.1085 17.2689 17.2696 19.1076 15.0007 19.1076C12.7319 19.1076 10.8924 17.2689 10.8924 15.0001ZM17.6674 15.0001C17.6674 13.5272 16.4734 12.3334 15.0008 12.3334C13.5279 12.3334 12.3341 13.5272 12.3341 15.0001C12.3341 16.4728 13.5279 17.6668 15.0008 17.6668C16.4734 17.6668 17.6674 16.4728 17.6674 15.0001Z" fill="white"/>
</svg>
