<svg width="162" height="33" viewBox="0 0 162 33" fill="none" xmlns="http://www.w3.org/2000/svg">
<path fill-rule="evenodd" clip-rule="evenodd" d="M130.988 16.988V23H128.162V16.988C128.162 13.982 130.466 11.318 133.544 11.318C136.622 11.318 138.926 13.982 138.926 16.988V23H136.1V16.988C136.1 15.548 135.056 14.162 133.544 14.162C132.032 14.162 130.988 15.548 130.988 16.988ZM72.398 23V20.426H77.528V23H80.372V17.024C80.372 13.874 77.942 11.336 74.954 11.336C71.966 11.336 69.536 13.874 69.536 17.024V23H72.398ZM50.312 18.734V23H47.45V11.606H50.312V15.872H54.74V11.606H57.602V23H54.74V18.734H50.312ZM68.636 20.138V23H63.92C60.824 23 58.502 20.318 58.502 17.312C58.502 14.288 60.824 11.606 63.92 11.606H68.636V14.468H63.92C62.966 14.468 62.138 15.062 61.706 15.872H66.494V18.734H61.706C62.138 19.562 62.966 20.138 63.92 20.138H68.636ZM72.398 17.582H77.528V17.024C77.528 15.458 76.376 14.18 74.954 14.18C73.55 14.18 72.398 15.458 72.398 17.024V17.582ZM86.69 23C89.678 23 92.108 20.444 92.108 17.312C92.108 14.162 89.678 11.606 86.69 11.606H81.272V23H86.69ZM84.134 20.138H86.69C88.112 20.138 89.264 18.878 89.264 17.312C89.264 15.746 88.112 14.468 86.69 14.468H84.134V20.138ZM95.834 23V20.606H99.326C101.774 20.606 103.592 18.536 103.592 16.16C103.592 13.784 101.774 11.696 99.326 11.696H93.008V23H95.834ZM95.834 17.78H99.326C100.19 17.78 100.766 16.952 100.766 16.16C100.766 15.368 100.19 14.522 99.326 14.522H95.834V17.78ZM107.354 23V18.734H111.782V23H114.644V11.606H111.782V15.872H107.354V11.606H104.492V23H107.354ZM127.262 17.366C127.262 20.606 124.706 23.378 121.412 23.378C118.118 23.378 115.544 20.606 115.544 17.366C115.544 14.108 118.118 11.354 121.412 11.354C124.706 11.354 127.262 14.108 127.262 17.366ZM121.412 20.534C119.666 20.534 118.37 19.04 118.37 17.366C118.37 15.674 119.684 14.18 121.412 14.18C123.14 14.18 124.436 15.674 124.436 17.366C124.436 19.04 123.14 20.534 121.412 20.534ZM149.96 23V20.138H145.244C144.29 20.138 143.462 19.562 143.03 18.734H147.818V15.872H143.03C143.462 15.062 144.29 14.468 145.244 14.468H149.96V11.606H145.244C142.148 11.606 139.826 14.288 139.826 17.312C139.826 20.318 142.148 23 145.244 23H149.96ZM156.53 20.102C155.954 21.632 154.352 23 152.66 23H150.86V20.174H152.66C153.128 20.174 153.722 19.508 153.866 19.112L155.558 14.594C156.152 12.992 157.862 11.696 159.59 11.696H161.57V14.522H159.59C159.05 14.522 158.384 15.098 158.204 15.584L156.53 20.102Z" fill="white"/>
<path fill-rule="evenodd" clip-rule="evenodd" d="M17 0.763916L33.3925 12.6737L27.1311 31.9443H6.8689L0.607529 12.6737L17 0.763916ZM31.041 13.437L17 3.23598L2.958 13.437L8.321 29.944H25.678L31.041 13.437Z" fill="white"/>
<path fill-rule="evenodd" clip-rule="evenodd" d="M17 6.76392L27.6861 14.5278L23.6044 27.0902H10.3956L6.31387 14.5278L17 6.76392ZM25.334 15.291L17 9.23598L8.66501 15.291L11.848 25.09H22.151L25.334 15.291Z" fill="#FF6565"/>
<path fill-rule="evenodd" clip-rule="evenodd" d="M17 14L20.8042 16.7639L19.3511 21.2361H14.6489L13.1958 16.7639L17 14Z" fill="white"/>
</svg>
