<svg width="52" height="58" viewBox="0 0 52 58" fill="none" xmlns="http://www.w3.org/2000/svg">
<path fill-rule="evenodd" clip-rule="evenodd" d="M51.66 1.62192V12.6139V12.6259V39.3019C51.66 41.4019 50.616 43.3339 48.72 44.7619C46.956 46.0819 44.652 46.8139 42.204 46.8139C39.756 46.8139 37.452 46.0819 35.688 44.7619C33.792 43.3339 32.748 41.4019 32.748 39.3019C32.748 37.2019 33.792 35.2699 35.688 33.8419C37.452 32.5219 39.768 31.7899 42.204 31.7899C44.508 31.7899 46.704 32.4379 48.42 33.6259V14.8339L18.912 24.2179V49.7539C18.912 51.8539 17.868 53.7859 15.972 55.2139C14.208 56.5339 11.904 57.2659 9.456 57.2659C7.008 57.2659 4.704 56.5339 2.94 55.2139C1.044 53.7859 0 51.8539 0 49.7539C0 47.6539 1.044 45.7219 2.94 44.2939C4.704 42.9739 7.02 42.2419 9.456 42.2419C11.76 42.2419 13.956 42.8899 15.672 44.0779V23.0419V23.0299V12.0259C15.672 11.3179 16.128 10.6939 16.8 10.4779L49.548 0.0739189C50.04 -0.0820811 50.58 0.0139189 51 0.313919C51.408 0.613919 51.66 1.10592 51.66 1.62192ZM3.24 49.7539C3.24 52.0699 6.084 54.0259 9.456 54.0259C12.828 54.0259 15.672 52.0819 15.672 49.7539C15.672 47.4379 12.828 45.4819 9.456 45.4819C6.084 45.4819 3.24 47.4379 3.24 49.7539ZM18.912 20.8099V13.2019L48.42 3.82992V11.4379L18.912 20.8099ZM36 39.3019C36 41.6179 38.844 43.5739 42.216 43.5739C45.576 43.5739 48.42 41.6179 48.432 39.3019C48.432 36.9859 45.588 35.0299 42.216 35.0299C38.844 35.0299 36 36.9859 36 39.3019Z" fill="#FF6565"/>
</svg>
