<svg width="95" height="66" viewBox="0 0 95 66" fill="none" xmlns="http://www.w3.org/2000/svg">
<path fill-rule="evenodd" clip-rule="evenodd" d="M40.9092 2.1213C40.9092 0.961501 41.8494 0.0213013 43.0092 0.0213013C44.169 0.0213013 45.1092 0.961501 45.1092 2.1213V63.2784C45.1092 64.4382 44.169 65.3784 43.0092 65.3784C41.8494 65.3784 40.9092 64.4382 40.9092 63.2784V2.1213ZM34.8276 14.5764C33.6678 14.5764 32.7276 15.5166 32.7276 16.6764V48.7236C32.7276 49.8834 33.6678 50.8236 34.8276 50.8236C35.9874 50.8236 36.9276 49.8834 36.9276 48.7236V16.6764C36.9276 15.5166 35.9874 14.5764 34.8276 14.5764ZM24.5454 22.8189C24.5454 21.6591 25.4856 20.7189 26.6454 20.7189C27.8055 20.7189 28.7454 21.6588 28.7454 22.8189V42.5814C28.7454 43.7412 27.8052 44.6814 26.6454 44.6814C25.4856 44.6814 24.5454 43.7412 24.5454 42.5814V22.8189ZM18.4638 24.1905C17.304 24.1905 16.3638 25.1307 16.3638 26.2905V39.1095C16.3638 40.2693 17.304 41.2095 18.4638 41.2095C19.6236 41.2095 20.5638 40.2693 20.5638 39.1095V26.2905C20.5638 25.1307 19.6236 24.1905 18.4638 24.1905ZM0 29.2284C0 28.0686 0.9402 27.1284 2.1 27.1284C3.2598 27.1284 4.2 28.0683 4.2 29.2284V36.1719C4.2 37.3317 3.2598 38.2719 2.1 38.2719C0.9402 38.2719 0 37.3317 0 36.1719V29.2284ZM8.1819 29.2284C8.1819 28.0686 9.1221 27.1284 10.2819 27.1284C11.442 27.1284 12.3819 28.0683 12.3819 29.2284V36.1719C12.3819 37.3317 11.4417 38.2719 10.2819 38.2719C9.1221 38.2719 8.1819 37.3317 8.1819 36.1719V29.2284ZM51.1911 5.229C50.0313 5.229 49.0911 6.1692 49.0911 7.329V58.071C49.0911 59.2308 50.0313 60.171 51.1911 60.171C52.3509 60.171 53.2911 59.2308 53.2911 58.071V7.329C53.2911 6.1689 52.3509 5.229 51.1911 5.229ZM57.2727 17.7444C57.2727 16.5846 58.2129 15.6444 59.3727 15.6444C60.5325 15.6444 61.4727 16.5846 61.4727 17.7444V47.6553C61.4727 48.8151 60.5325 49.7553 59.3727 49.7553C58.2129 49.7553 57.2727 48.8151 57.2727 47.6553V17.7444ZM67.5549 21.9201C66.3951 21.9201 65.4549 22.8603 65.4549 24.0201V41.3793C65.4549 42.5391 66.3951 43.4793 67.5549 43.4793C68.7147 43.4793 69.6549 42.5391 69.6549 41.3793V24.0201C69.6549 22.8603 68.7147 21.9201 67.5549 21.9201ZM73.6368 26.6913C73.6368 25.5315 74.577 24.5913 75.7368 24.5913C76.8966 24.5913 77.8368 25.5315 77.8368 26.6913V38.709C77.8368 39.8688 76.8966 40.809 75.7368 40.809C74.577 40.809 73.6368 39.8688 73.6368 38.709V26.6913ZM83.9184 27.1284C82.7586 27.1284 81.8184 28.0686 81.8184 29.2284V36.1719C81.8184 37.3317 82.7586 38.2719 83.9184 38.2719C85.0782 38.2719 86.0184 37.3317 86.0184 36.1719V29.2284C86.0184 28.0683 85.0782 27.1284 83.9184 27.1284ZM90 29.2284C90 28.0686 90.9402 27.1284 92.1 27.1284C93.2598 27.1284 94.2 28.0683 94.2 29.2284V36.1719C94.2 37.3317 93.2598 38.2719 92.1 38.2719C90.9402 38.2719 90 37.3317 90 36.1719V29.2284Z" fill="#FF6565"/>
</svg>
