<svg width="68" height="77" viewBox="0 0 68 77" fill="none" xmlns="http://www.w3.org/2000/svg">
<path fill-rule="evenodd" clip-rule="evenodd" d="M66.0885 31.0014H14.9127L64.0676 16.7619C64.4496 16.6512 64.7719 16.3928 64.9641 16.0447C65.1562 15.6961 65.202 15.2859 65.0912 14.9039L62.5189 6.02402C61.4912 2.47734 58.1889 0 54.4881 0C53.7082 0 52.9312 0.110742 52.1777 0.328711L6.02636 13.698C3.89179 14.3162 2.12285 15.7354 1.04414 17.693C-0.0339876 19.6506 -0.287113 21.9047 0.331051 24.0387L2.84414 32.7141V68.4521C2.84414 73.0553 6.58886 76.8 11.1914 76.8H29.216C30.0445 76.8 30.716 76.1285 30.716 75.3C30.716 74.4715 30.0445 73.8 29.216 73.8H11.192C8.24297 73.8 5.84414 71.4012 5.84414 68.4521V48.0393H13.5287H13.5322H13.5352H25.282H25.2855H25.2891H37.0359H37.0395H37.043H48.7898H48.7934H48.7963H64.5885V68.4521C64.5885 71.4012 62.1896 73.8 59.2406 73.8H41.216C40.3881 73.8 39.716 74.4715 39.716 75.3C39.716 76.1285 40.3881 76.8 41.216 76.8H59.2406C63.8438 76.8 67.5885 73.0553 67.5885 68.4521V32.5014C67.5885 31.6728 66.917 31.0014 66.0885 31.0014ZM39.6387 45.0393L46.0119 34.0014H54.3012L47.9285 45.0393H39.6387ZM34.258 34.0014L27.8848 45.0393H36.1746L42.5473 34.0014H34.258ZM16.1314 45.0393L22.5041 34.0014H30.7939L24.4207 45.0393H16.1314ZM11.0361 15.3703L21.7084 25.6207C21.7828 25.6922 21.849 25.7701 21.9053 25.8521L29.9016 23.5359L19.2293 13.2855C19.1543 13.2135 19.0887 13.1361 19.0324 13.0541L11.0361 15.3703ZM41.8084 6.74473L52.4807 16.9951L44.4844 19.3113C44.4281 19.2293 44.3625 19.1514 44.2875 19.0799L33.6152 8.82949L41.6115 6.51328C41.6678 6.59531 41.7334 6.67266 41.8084 6.74473ZM41.1908 20.2652L30.5186 10.0154C30.4441 9.94336 30.3785 9.86543 30.3217 9.78398L22.3254 12.1002L32.9977 22.3506C33.0727 22.4221 33.1383 22.5 33.1945 22.582L41.1908 20.2652ZM53.0127 3.21035C53.4943 3.0709 53.9906 3 54.4881 3C56.8617 3 58.9787 4.58672 59.6373 6.85898L61.7924 14.2975L55.7742 16.0406C55.7174 15.9586 55.6518 15.8812 55.5768 15.8092L44.9051 5.55937L53.0127 3.21035ZM6.86132 16.5797C5.49609 16.9752 4.36347 17.8846 3.67207 19.1402C2.98066 20.3965 2.81718 21.8396 3.21269 23.2043L5.36777 30.6428L18.6117 26.8061L7.93945 16.5557C7.86504 16.4842 7.79941 16.4062 7.74257 16.3242L6.86132 16.5797ZM5.84414 34.0014H19.04L12.6674 45.0393H5.84414V34.0014ZM57.7652 34.0014L51.3926 45.0393H64.5885V34.0014H57.7652ZM44.8383 59.468C45.3023 59.7357 45.5883 60.2309 45.5883 60.767C45.5883 61.3031 45.3023 61.7982 44.8383 62.066L31.66 69.6738C31.4279 69.808 31.1689 69.8754 30.91 69.8754C30.651 69.8754 30.392 69.808 30.16 69.6738C29.6959 69.4061 29.41 68.9109 29.41 68.3754V53.1586C29.41 52.6225 29.6959 52.1273 30.16 51.8596C30.624 51.5918 31.1959 51.5918 31.66 51.8596L44.8383 59.468ZM32.41 55.7566V65.7773L41.0883 60.767L32.41 55.7566ZM33.716 75.3C33.716 74.4738 34.3898 73.8 35.216 73.8C36.0428 73.8 36.716 74.4738 36.716 75.3C36.716 76.1262 36.0428 76.8 35.216 76.8C34.3898 76.8 33.716 76.1262 33.716 75.3Z" fill="#FF6565"/>
</svg>
